<svg width="160" height="160" viewBox="0 0 160 160" xmlns="http://www.w3.org/2000/svg" role="img" aria-label="Lion crest">
  <defs>
    <linearGradient id="lion-bg" x1="0" y1="0" x2="1" y2="1">
      <stop offset="0%" stop-color="#1e293b" />
      <stop offset="100%" stop-color="#111827" />
    </linearGradient>
  </defs>
  <rect x="10" y="10" width="140" height="140" rx="26" fill="url(#lion-bg)" stroke="#0ea5e9" stroke-width="5" />
  <circle cx="80" cy="82" r="46" fill="#f8fafc" opacity="0.08" />
  <path d="M80 42c-14 0-34 12-34 34 0 20 14 36 34 36s34-16 34-36c0-22-20-34-34-34Zm-12 32c4-8 8-12 12-12s8 4 12 12l-12 8Z" fill="#f97316" stroke="#fef3c7" stroke-width="4" stroke-linejoin="round" />
  <path d="M60 96c6 10 12 16 20 16s14-6 20-16" stroke="#f59e0b" stroke-width="6" stroke-linecap="round" />
  <circle cx="66" cy="78" r="4" fill="#0ea5e9" />
  <circle cx="94" cy="78" r="4" fill="#0ea5e9" />
</svg>
