<svg width="160" height="160" viewBox="0 0 160 160" xmlns="http://www.w3.org/2000/svg" role="img" aria-label="Phoenix crest">
  <defs>
    <linearGradient id="phoenix-bg" x1="0" y1="1" x2="1" y2="0">
      <stop offset="0%" stop-color="#7c3aed" />
      <stop offset="100%" stop-color="#f43f5e" />
    </linearGradient>
  </defs>
  <rect x="12" y="12" width="136" height="136" rx="24" fill="url(#phoenix-bg)" stroke="#0f172a" stroke-width="5" />
  <path d="M80 46c-18 0-34 12-34 32 0 18 12 32 32 32 4 0 8-1 12-3-2-10-4-18-8-28 10 6 18 14 24 24 8-8 12-18 12-29 0-21-16-28-24-34 0 8-6 14-14 14-6 0-12-4-12-8Z" fill="#fed7aa" opacity="0.9" />
  <path d="M66 118c10-8 22-13 30-30 0 10-4 21-6 30" stroke="#f97316" stroke-width="6" stroke-linecap="round" />
  <circle cx="96" cy="60" r="6" fill="#0ea5e9" />
</svg>
