<svg width="256" height="256" viewBox="0 0 256 256" xmlns="http://www.w3.org/2000/svg">
  <defs>
    <linearGradient id="g1" x1="0%" y1="0%" x2="100%" y2="100%">
      <stop offset="0%" stop-color="#22c55e" />
      <stop offset="100%" stop-color="#0f766e" />
    </linearGradient>
  </defs>
  <rect width="256" height="256" rx="28" fill="url(#g1)" />
  <g fill="#0f172a" transform="translate(78 52)">
    <path d="M50 148c8 0 14-6 14-14 0-6-3-10-8-13 7 2 15-3 18-10 5-12-1-25-13-29-8-2-16 1-21 6 3-8-1-17-8-21-12-5-25 1-29 13-2 8 1 16 6 21-8-3-17 1-21 8-5 12 1 25 13 29 7 3 15 1 21-3-1 2-2 5-2 8 0 8 6 15 14 15h16z" />
    <rect x="42" y="120" width="16" height="20" rx="4" fill="#e0f2fe" />
  </g>
</svg>
